<?xml version="1.0" encoding="UTF-8" standalone="no"?>
<svg
   width="1080pt"
   height="384.00201pt"
   version="1.1"
   viewBox="0 0 1080 384.00201"
   id="svg914"
   xmlns="http://www.w3.org/2000/svg"
   xmlns:svg="http://www.w3.org/2000/svg">
  <defs
     id="defs918" />
  <path
     d="M 1056,252.023 V 240 H 852 v -60 l 36,-12 -66,-24 V 132 L 852,108 792,84 780,24 V 12 C 780,5.3633 774.6367,0 768,0 761.3633,0 756,5.3633 756,12 V 24 H 324 V 12 C 324,5.3633 318.6367,0 312,0 305.3633,0 300,5.3633 300,12 v 12 l -12,60 -60,24 30,24 v 12 l -66,24 36,12 v 60 H 24 v 12.012 L 0,384.002 h 240 v -30 c 0,-9.9375 8.0625,-18 18,-18 9.9375,0 18,8.0625 18,18 v 30 h 96 v -36 c 0,-13.246 10.754,-24 24,-24 13.246,0 24,10.754 24,24 v 36 h 90 v -42 c 0,-16.57 13.43,-30 30,-30 16.57,0 30,13.43 30,30 v 42 h 90 v -36 c 0,-13.246 10.754,-24 24,-24 13.246,0 24,10.754 24,24 v 36 h 96 v -30 c 0,-9.9375 8.0625,-18 18,-18 9.9375,0 18,8.0625 18,18 v 30 h 240 z M 462,240 h -24 v -48 h 24 z m 96,0 h -36 v -48 h 36 z m 84,0 h -24 v -48 h 24 z"
     id="path912" />
</svg>
