<?xml version="1.0" encoding="UTF-8"?>
<svg width="1200pt" height="1200pt" version="1.1" viewBox="0 0 1200 1200" xmlns="http://www.w3.org/2000/svg">
 <path d="m670.8 686.4c7.1992-12 20.398-37.199 22.801-66l18 12c2.3984 2.3984 7.1992 2.3984 9.6016 0 2.3984-2.3984 4.8008-6 3.6016-9.6016-1.1992-8.3984-6-24-12-38.398l30-2.3984c3.6016 0 7.1992-3.6016 7.1992-7.1992 1.1992-3.6016-1.1992-7.1992-3.6016-9.6016-18-10.801-60-38.398-75.602-60l4.8008-4.8008 14.398 19.199 1.1992 1.1992c2.3984 2.3984 4.8008 2.3984 7.1992 3.6016 3.6016 0 6-1.1992 8.3984-3.6016l22.801-22.801c4.8008-4.8008 4.8008-10.801 0-15.602l-7.1992-7.1992c19.199-1.1992 52.801-10.801 100.8-58.801 73.199-73.199 69.602-205.2 69.602-211.2v-12l-168 168-6-9.6016c-1.1992-2.3984-4.8008-3.6016-7.1992-4.8008-2.3984 0-6 1.1992-7.1992 3.6016l-46.801 58.801-6-6c-4.8008-4.8008-10.801-4.8008-15.602 0l-10.801 10.801c-3.6016 3.6016-4.8008 9.6016-1.1992 14.398l27.602 37.199-42 42-382.8 386.41c-7.1992 7.1992-7.1992 20.398 0 28.801 7.1992 8.3984 20.398 7.1992 28.801 0l368.4-369.6c4.8008 7.1992 12 24 21.602 54 6 19.199 8.3984 62.398 8.3984 75.602 0 2.3984 1.1992 4.8008 2.3984 6 1.1992 1.1992 2.3984 1.1992 3.6016 2.3984 4.8008 0 8.3984-1.1992 10.801-4.8008zm-27.602-168-13.199-13.199 8.3984-8.3984 15.602 9.6016zm20.402-20.398-15.602-9.6016 10.801-10.801 10.801 14.398zm-40.801 14.398 13.199 13.199-8.3984 8.3984-8.4023-17.996z"/>
</svg>
